<mxfile host="app.diagrams.net" modified="2023-09-07T05:50:07.871Z" agent="Mozilla/5.0 (Macintosh; Intel Mac OS X 10_15_7) AppleWebKit/537.36 (KHTML, like Gecko) Chrome/116.0.0.0 Safari/537.36" etag="0peN-RtizD_7yaHeyI3O" version="21.6.8" type="github">
  <diagram name="第 1 页" id="8mv1xHhavQ2V_2IRnKJ-">
    <mxGraphModel dx="1143" dy="753" grid="0" gridSize="10" guides="1" tooltips="1" connect="1" arrows="1" fold="1" page="0" pageScale="1" pageWidth="1169" pageHeight="827" math="0" shadow="0">
      <root>
        <mxCell id="0" />
        <mxCell id="1" parent="0" />
        <mxCell id="-X76mf6UZM2l0vgwLdEs-5" style="edgeStyle=orthogonalEdgeStyle;rounded=0;orthogonalLoop=1;jettySize=auto;html=1;entryX=0;entryY=0.5;entryDx=0;entryDy=0;" edge="1" parent="1" source="-X76mf6UZM2l0vgwLdEs-1" target="-X76mf6UZM2l0vgwLdEs-4">
          <mxGeometry relative="1" as="geometry">
            <Array as="points">
              <mxPoint x="248" y="575" />
            </Array>
          </mxGeometry>
        </mxCell>
        <mxCell id="-X76mf6UZM2l0vgwLdEs-6" style="edgeStyle=orthogonalEdgeStyle;rounded=0;orthogonalLoop=1;jettySize=auto;html=1;entryX=0.25;entryY=1;entryDx=0;entryDy=0;" edge="1" parent="1" source="-X76mf6UZM2l0vgwLdEs-1" target="-X76mf6UZM2l0vgwLdEs-2">
          <mxGeometry relative="1" as="geometry">
            <Array as="points">
              <mxPoint x="248" y="482" />
              <mxPoint x="570" y="482" />
            </Array>
          </mxGeometry>
        </mxCell>
        <mxCell id="-X76mf6UZM2l0vgwLdEs-9" value="&lt;font style=&quot;font-size: 17px;&quot;&gt;E(X)&lt;/font&gt;" style="edgeLabel;html=1;align=center;verticalAlign=middle;resizable=0;points=[];" vertex="1" connectable="0" parent="-X76mf6UZM2l0vgwLdEs-6">
          <mxGeometry x="-0.8728" relative="1" as="geometry">
            <mxPoint as="offset" />
          </mxGeometry>
        </mxCell>
        <mxCell id="-X76mf6UZM2l0vgwLdEs-10" style="edgeStyle=orthogonalEdgeStyle;rounded=0;orthogonalLoop=1;jettySize=auto;html=1;entryX=0;entryY=0.5;entryDx=0;entryDy=0;" edge="1" parent="1" source="-X76mf6UZM2l0vgwLdEs-1" target="-X76mf6UZM2l0vgwLdEs-3">
          <mxGeometry relative="1" as="geometry">
            <Array as="points">
              <mxPoint x="249" y="181" />
            </Array>
          </mxGeometry>
        </mxCell>
        <mxCell id="-X76mf6UZM2l0vgwLdEs-11" value="&lt;font style=&quot;font-size: 16px;&quot;&gt;X-P&lt;sub&gt;x&lt;/sub&gt;&lt;/font&gt;" style="edgeLabel;html=1;align=center;verticalAlign=middle;resizable=0;points=[];" vertex="1" connectable="0" parent="-X76mf6UZM2l0vgwLdEs-10">
          <mxGeometry x="-0.5025" y="1" relative="1" as="geometry">
            <mxPoint as="offset" />
          </mxGeometry>
        </mxCell>
        <mxCell id="-X76mf6UZM2l0vgwLdEs-1" value="&lt;font style=&quot;font-size: 23px;&quot;&gt;E&lt;/font&gt;" style="rounded=0;whiteSpace=wrap;html=1;" vertex="1" parent="1">
          <mxGeometry x="192" y="366" width="120" height="49" as="geometry" />
        </mxCell>
        <mxCell id="-X76mf6UZM2l0vgwLdEs-7" style="edgeStyle=orthogonalEdgeStyle;rounded=0;orthogonalLoop=1;jettySize=auto;html=1;exitX=0.75;exitY=1;exitDx=0;exitDy=0;entryX=1;entryY=0.5;entryDx=0;entryDy=0;" edge="1" parent="1" source="-X76mf6UZM2l0vgwLdEs-2" target="-X76mf6UZM2l0vgwLdEs-4">
          <mxGeometry relative="1" as="geometry" />
        </mxCell>
        <mxCell id="-X76mf6UZM2l0vgwLdEs-8" value="&lt;font style=&quot;font-size: 16px;&quot;&gt;Z ~ P&lt;sub&gt;z&lt;/sub&gt;&lt;/font&gt;" style="edgeLabel;html=1;align=center;verticalAlign=middle;resizable=0;points=[];" vertex="1" connectable="0" parent="-X76mf6UZM2l0vgwLdEs-7">
          <mxGeometry x="-0.4909" relative="1" as="geometry">
            <mxPoint as="offset" />
          </mxGeometry>
        </mxCell>
        <mxCell id="-X76mf6UZM2l0vgwLdEs-12" style="edgeStyle=orthogonalEdgeStyle;rounded=0;orthogonalLoop=1;jettySize=auto;html=1;entryX=1;entryY=0.5;entryDx=0;entryDy=0;" edge="1" parent="1" source="-X76mf6UZM2l0vgwLdEs-2" target="-X76mf6UZM2l0vgwLdEs-3">
          <mxGeometry relative="1" as="geometry">
            <Array as="points">
              <mxPoint x="633" y="181" />
            </Array>
          </mxGeometry>
        </mxCell>
        <mxCell id="-X76mf6UZM2l0vgwLdEs-13" value="&lt;font style=&quot;font-size: 16px;&quot;&gt;G(Z)&lt;/font&gt;" style="edgeLabel;html=1;align=center;verticalAlign=middle;resizable=0;points=[];" vertex="1" connectable="0" parent="-X76mf6UZM2l0vgwLdEs-12">
          <mxGeometry x="-0.457" relative="1" as="geometry">
            <mxPoint as="offset" />
          </mxGeometry>
        </mxCell>
        <mxCell id="-X76mf6UZM2l0vgwLdEs-27" value="G(E(X))" style="edgeStyle=orthogonalEdgeStyle;rounded=0;orthogonalLoop=1;jettySize=auto;html=1;entryX=1;entryY=0.5;entryDx=0;entryDy=0;" edge="1" parent="1" source="-X76mf6UZM2l0vgwLdEs-2" target="-X76mf6UZM2l0vgwLdEs-25">
          <mxGeometry x="0.0095" relative="1" as="geometry">
            <Array as="points">
              <mxPoint x="572" y="322" />
            </Array>
            <mxPoint as="offset" />
          </mxGeometry>
        </mxCell>
        <mxCell id="-X76mf6UZM2l0vgwLdEs-2" value="&lt;font style=&quot;font-size: 23px;&quot;&gt;G&lt;/font&gt;" style="rounded=0;whiteSpace=wrap;html=1;" vertex="1" parent="1">
          <mxGeometry x="540" y="366" width="120" height="49" as="geometry" />
        </mxCell>
        <mxCell id="-X76mf6UZM2l0vgwLdEs-3" value="&lt;font style=&quot;font-size: 23px;&quot;&gt;D&lt;sub&gt;x&lt;/sub&gt;&lt;/font&gt;" style="rounded=0;whiteSpace=wrap;html=1;" vertex="1" parent="1">
          <mxGeometry x="367" y="156" width="120" height="49" as="geometry" />
        </mxCell>
        <mxCell id="-X76mf6UZM2l0vgwLdEs-4" value="&lt;font style=&quot;font-size: 23px;&quot;&gt;D&lt;sub&gt;z&lt;/sub&gt;&lt;/font&gt;" style="rounded=0;whiteSpace=wrap;html=1;" vertex="1" parent="1">
          <mxGeometry x="367" y="550" width="120" height="49" as="geometry" />
        </mxCell>
        <mxCell id="-X76mf6UZM2l0vgwLdEs-26" style="edgeStyle=orthogonalEdgeStyle;rounded=0;orthogonalLoop=1;jettySize=auto;html=1;exitX=0.5;exitY=1;exitDx=0;exitDy=0;entryX=0;entryY=0.5;entryDx=0;entryDy=0;" edge="1" parent="1" source="-X76mf6UZM2l0vgwLdEs-14" target="-X76mf6UZM2l0vgwLdEs-25">
          <mxGeometry relative="1" as="geometry" />
        </mxCell>
        <mxCell id="-X76mf6UZM2l0vgwLdEs-14" value="" style="rounded=0;whiteSpace=wrap;html=1;dashed=1;" vertex="1" parent="1">
          <mxGeometry x="332" y="225" width="142" height="105" as="geometry" />
        </mxCell>
        <mxCell id="-X76mf6UZM2l0vgwLdEs-15" style="edgeStyle=orthogonalEdgeStyle;rounded=0;orthogonalLoop=1;jettySize=auto;html=1;" edge="1" parent="1" source="-X76mf6UZM2l0vgwLdEs-16" target="-X76mf6UZM2l0vgwLdEs-18">
          <mxGeometry relative="1" as="geometry" />
        </mxCell>
        <mxCell id="-X76mf6UZM2l0vgwLdEs-16" value="" style="rounded=0;whiteSpace=wrap;html=1;rotation=90;" vertex="1" parent="1">
          <mxGeometry x="325.63" y="273.87" width="41" height="5.75" as="geometry" />
        </mxCell>
        <mxCell id="-X76mf6UZM2l0vgwLdEs-17" style="edgeStyle=orthogonalEdgeStyle;rounded=0;orthogonalLoop=1;jettySize=auto;html=1;entryX=0.5;entryY=1;entryDx=0;entryDy=0;" edge="1" parent="1" source="-X76mf6UZM2l0vgwLdEs-18" target="-X76mf6UZM2l0vgwLdEs-20">
          <mxGeometry relative="1" as="geometry" />
        </mxCell>
        <mxCell id="-X76mf6UZM2l0vgwLdEs-18" value="" style="rounded=0;whiteSpace=wrap;html=1;rotation=90;" vertex="1" parent="1">
          <mxGeometry x="342.51" y="272.36" width="63.12" height="7.38" as="geometry" />
        </mxCell>
        <mxCell id="-X76mf6UZM2l0vgwLdEs-19" style="edgeStyle=orthogonalEdgeStyle;rounded=0;orthogonalLoop=1;jettySize=auto;html=1;entryX=0.5;entryY=1;entryDx=0;entryDy=0;" edge="1" parent="1" source="-X76mf6UZM2l0vgwLdEs-20" target="-X76mf6UZM2l0vgwLdEs-21">
          <mxGeometry relative="1" as="geometry" />
        </mxCell>
        <mxCell id="-X76mf6UZM2l0vgwLdEs-20" value="" style="rounded=0;whiteSpace=wrap;html=1;rotation=90;" vertex="1" parent="1">
          <mxGeometry x="354.25" y="272.62" width="93.62" height="6.88" as="geometry" />
        </mxCell>
        <mxCell id="-X76mf6UZM2l0vgwLdEs-21" value="" style="rounded=0;whiteSpace=wrap;html=1;rotation=90;" vertex="1" parent="1">
          <mxGeometry x="405.45" y="272.68" width="46.37" height="5.75" as="geometry" />
        </mxCell>
        <mxCell id="-X76mf6UZM2l0vgwLdEs-22" value="&lt;b&gt;Latent features&lt;/b&gt;" style="text;html=1;strokeColor=none;fillColor=none;align=center;verticalAlign=middle;whiteSpace=wrap;rounded=0;" vertex="1" parent="1">
          <mxGeometry x="476" y="375" width="60" height="30" as="geometry" />
        </mxCell>
        <mxCell id="-X76mf6UZM2l0vgwLdEs-23" value="" style="endArrow=classic;html=1;rounded=0;" edge="1" parent="1">
          <mxGeometry width="50" height="50" relative="1" as="geometry">
            <mxPoint x="274" y="288" as="sourcePoint" />
            <mxPoint x="318" y="288" as="targetPoint" />
          </mxGeometry>
        </mxCell>
        <mxCell id="-X76mf6UZM2l0vgwLdEs-25" value="&lt;font style=&quot;font-size: 14px;&quot;&gt;L2&lt;/font&gt;" style="rounded=0;whiteSpace=wrap;html=1;" vertex="1" parent="1">
          <mxGeometry x="504" y="314" width="43" height="16" as="geometry" />
        </mxCell>
      </root>
    </mxGraphModel>
  </diagram>
</mxfile>
